<?xml version="1.0" encoding="UTF-8"?>
<svg width="202.09mm" height="76.229mm" version="1.1" viewBox="0 0 202.09 76.229" xmlns="http://www.w3.org/2000/svg">
 <defs>
  <linearGradient id="linearGradient867" x1="136.75" x2="188.83" y1="93.683" y2="93.683" gradientTransform="translate(-35.773,-61.472)" gradientUnits="userSpaceOnUse">
   <stop stop-color="#fff" offset="0"/>
   <stop stop-color="#ececec" offset="1"/>
  </linearGradient>
  <linearGradient id="linearGradient883" x1="48.115" x2="165.89" y1="82.077" y2="82.077" gradientTransform="translate(-35.773,-61.472)" gradientUnits="userSpaceOnUse">
   <stop stop-color="#f60" offset="0"/>
   <stop stop-color="#d2ab92" offset="1"/>
  </linearGradient>
  <linearGradient id="linearGradient891" x1="35.622" x2="165.89" y1="70.472" y2="70.472" gradientTransform="translate(-35.773,-61.472)" gradientUnits="userSpaceOnUse">
   <stop offset="0"/>
   <stop stop-color="#616161" offset="1"/>
  </linearGradient>
 </defs>
 <g transform="translate(7.4978 -131.23)">
  <g transform="matrix(1.5545 0 0 1.7754 -7.4978 131.23)" opacity=".65">
   <g fill-rule="evenodd">
    <path d="m25.779 24.66h104.22v18.276h-80.608c-15.64 0-23.613-18.276-23.613-18.276z" fill-opacity=".57661" style="paint-order:normal"/>
    <path d="m13.261 13.069h116.74v18.246h-93.104c-17.519 0-23.636-18.246-23.636-18.246z" fill-opacity=".58" style="paint-order:normal"/>
    <path d="m0.80544 1.4761h129.19v18.223h-105.55c-19.388 0-23.643-18.223-23.643-18.223z" fill-opacity=".58" style="paint-order:normal"/>
    <path d="M 0,0 H 130 V 18 H 23.79 C 4.281,18 0,0 0,0 Z" fill="url(#linearGradient891)" style="paint-order:normal"/>
    <path d="m12.5 11.605h117.5v18h-93.711c-17.633 0-23.79-18-23.79-18z" fill="url(#linearGradient883)" style="paint-order:normal"/>
    <path d="m25 23.211h105v18h-81.211c-15.757 0-23.79-18-23.79-18z" fill="url(#linearGradient867)" style="paint-order:normal"/>
   </g>
  </g>
 </g>
</svg>
